# xmcd CD database file
#
# Track frame offsets:
#	182
#	16370
#	31737
#	46435
#	60810
#	74000
#	87857
#	99930
#	112807
#	125720
#	144617
#	156275
#	169975
#	181832
#	194190
#	207972
#	219790
#	234027
#
# Disc length: 3312 seconds
#
# Revision: 0
# Processed by: cddbd v1.5.2PL0 Copyright (c) Steve Scherf et al.
# Submitted via: CDex 1.51
#
DISCID=f20cee12
DTITLE=Bob Crosby - Bob Crosby 1937-1938
DYEAR=1989
DGENRE=Jazz
TTITLE0=South Rampart Street Parade
TTITLE1=Gin Mill Blues
TTITLE2=Squeeze Me
TTITLE3=Stumbling
TTITLE4=Who's Sorry Now
TTITLE5=Couquette
TTITLE6=Fidgety Feet
TTITLE7=You're Driving Me Crazy
TTITLE8=Can't We Be Friends
TTITLE9=Dogtown Blues
TTITLE10=March Of The Bobcats
TTITLE11=Slow Mood
TTITLE12=Big Foot Jump
TTITLE13=The Big Crash Form China
TTITLE14=Five Point Blues
TTITLE15=The Big Noise From Winnetica
TTITLE16=Swingin' at the Sugar Bowl
TTITLE17=Honky Ton Train
EXTD=YEAR: 1989
EXTT0=
EXTT1=
EXTT2=
EXTT3=
EXTT4=
EXTT5=
EXTT6=
EXTT7=
EXTT8=
EXTT9=
EXTT10=
EXTT11=
EXTT12=
EXTT13=
EXTT14=
EXTT15=
EXTT16=
EXTT17=
PLAYORDER=
